<svg width="76" height="56" viewBox="0 0 350 469" fill="none" xmlns="http://www.w3.org/2000/svg">
<g filter="url(#filter0_d_266_2907)">
<path d="M211.346 341.229C172.915 375.359 117.576 390.854 83.1888 373.048C48.8021 355.242 54.4399 294.198 46.2894 255.762C38.139 217.325 38.4742 227.462 44.0666 188.553C49.6591 149.643 46.6008 75.3085 70.5 68.4971C94.3992 61.6856 118.258 126.643 158.783 155.858C199.308 185.072 256.703 170.608 267.654 209.228" stroke="url(#paint0_linear_266_2907)" stroke-width="10"/>
<g filter="url(#filter1_d_266_2907)">
<path d="M216.623 213.544C223.05 236.195 206.129 270.95 183.572 290.968C161.016 310.986 128.533 320.075 108.35 309.631C88.1665 299.187 91.4756 263.382 86.6916 240.838C81.9076 218.293 82.1044 224.239 85.3869 201.417C88.6694 178.596 77.9722 132.995 92 129C106.028 125.005 125.934 165.105 149.72 182.24C173.507 199.376 210.195 190.892 216.623 213.544Z" stroke="url(#paint1_linear_266_2907)" stroke-width="10" shape-rendering="crispEdges"/>
</g>
<g filter="url(#filter2_d_266_2907)">
<path d="M174.481 228.313C177.243 237.968 168.381 249.463 158.69 257.996C148.999 266.528 135.044 270.402 126.372 265.951C117.701 261.499 119.122 246.238 117.067 236.629C115.012 227.02 113.071 227.04 114.481 217.313C115.891 207.586 112.481 195.432 119.981 193.313C128.981 190.77 135.216 204.349 145.435 211.653C155.654 218.957 171.72 218.658 174.481 228.313Z" stroke="url(#paint2_linear_266_2907)" stroke-width="10" shape-rendering="crispEdges"/>
</g>
</g>
<g filter="url(#filter3_d_266_2907)">
<path d="M337.613 208.19C353.42 263.949 311.807 349.501 256.334 398.777C200.86 448.054 120.979 470.427 71.3421 444.718C21.7057 419.01 29.8436 330.873 18.0786 275.377C6.31361 219.881 6.79754 234.517 14.8701 178.339C22.9426 122.161 22.3289 15.5572 56.8268 5.7227C91.3248 -4.11183 121.963 88.9526 180.46 131.133C238.957 173.314 321.806 152.431 337.613 208.19Z" stroke="url(#paint3_linear_266_2907)" stroke-width="10" shape-rendering="crispEdges"/>
</g>
<defs>
<filter id="filter0_d_266_2907" x="31.0008" y="62.9927" width="248" height="330.504" filterUnits="userSpaceOnUse" color-interpolation-filters="sRGB">
<feFlood flood-opacity="0" result="BackgroundImageFix"/>
<feColorMatrix in="SourceAlpha" type="matrix" values="0 0 0 0 0 0 0 0 0 0 0 0 0 0 0 0 0 0 127 0" result="hardAlpha"/>
<feOffset dy="4"/>
<feGaussianBlur stdDeviation="2"/>
<feComposite in2="hardAlpha" operator="out"/>
<feColorMatrix type="matrix" values="0 0 0 0 0 0 0 0 0 0 0 0 0 0 0 0 0 0 0.25 0"/>
<feBlend mode="normal" in2="BackgroundImageFix" result="effect1_dropShadow_266_2907"/>
<feBlend mode="normal" in="SourceGraphic" in2="effect1_dropShadow_266_2907" result="shape"/>
</filter>
<filter id="filter1_d_266_2907" x="74.0008" y="123.716" width="153" height="203.283" filterUnits="userSpaceOnUse" color-interpolation-filters="sRGB">
<feFlood flood-opacity="0" result="BackgroundImageFix"/>
<feColorMatrix in="SourceAlpha" type="matrix" values="0 0 0 0 0 0 0 0 0 0 0 0 0 0 0 0 0 0 127 0" result="hardAlpha"/>
<feOffset dy="4"/>
<feGaussianBlur stdDeviation="2"/>
<feComposite in2="hardAlpha" operator="out"/>
<feColorMatrix type="matrix" values="0 0 0 0 0 0 0 0 0 0 0 0 0 0 0 0 0 0 0.25 0"/>
<feBlend mode="normal" in2="BackgroundImageFix" result="effect1_dropShadow_266_2907"/>
<feBlend mode="normal" in="SourceGraphic" in2="effect1_dropShadow_266_2907" result="shape"/>
</filter>
<filter id="filter2_d_266_2907" x="105" y="187.992" width="78.9956" height="92.8206" filterUnits="userSpaceOnUse" color-interpolation-filters="sRGB">
<feFlood flood-opacity="0" result="BackgroundImageFix"/>
<feColorMatrix in="SourceAlpha" type="matrix" values="0 0 0 0 0 0 0 0 0 0 0 0 0 0 0 0 0 0 127 0" result="hardAlpha"/>
<feOffset dy="4"/>
<feGaussianBlur stdDeviation="2"/>
<feComposite in2="hardAlpha" operator="out"/>
<feColorMatrix type="matrix" values="0 0 0 0 0 0 0 0 0 0 0 0 0 0 0 0 0 0 0.25 0"/>
<feBlend mode="normal" in2="BackgroundImageFix" result="effect1_dropShadow_266_2907"/>
<feBlend mode="normal" in="SourceGraphic" in2="effect1_dropShadow_266_2907" result="shape"/>
</filter>
<filter id="filter3_d_266_2907" x="0.000793457" y="-0.0078125" width="350" height="468.48" filterUnits="userSpaceOnUse" color-interpolation-filters="sRGB">
<feFlood flood-opacity="0" result="BackgroundImageFix"/>
<feColorMatrix in="SourceAlpha" type="matrix" values="0 0 0 0 0 0 0 0 0 0 0 0 0 0 0 0 0 0 127 0" result="hardAlpha"/>
<feOffset dy="4"/>
<feGaussianBlur stdDeviation="2"/>
<feComposite in2="hardAlpha" operator="out"/>
<feColorMatrix type="matrix" values="0 0 0 0 0 0 0 0 0 0 0 0 0 0 0 0 0 0 0.25 0"/>
<feBlend mode="normal" in2="BackgroundImageFix" result="effect1_dropShadow_266_2907"/>
<feBlend mode="normal" in="SourceGraphic" in2="effect1_dropShadow_266_2907" result="shape"/>
</filter>
<linearGradient id="paint0_linear_266_2907" x1="155" y1="71.8423" x2="155" y2="380.497" gradientUnits="userSpaceOnUse">
<stop stop-color="#FFC700"/>
<stop offset="0.455" stop-color="#FFE927"/>
<stop offset="1" stop-color="#EE821F"/>
</linearGradient>
<linearGradient id="paint1_linear_266_2907" x1="150.5" y1="131" x2="150.5" y2="314" gradientUnits="userSpaceOnUse">
<stop stop-color="#FFC700"/>
<stop offset="0.455" stop-color="#FFE927"/>
<stop offset="1" stop-color="#EE821F"/>
</linearGradient>
<linearGradient id="paint2_linear_266_2907" x1="144.496" y1="193.92" x2="144.496" y2="267.813" gradientUnits="userSpaceOnUse">
<stop stop-color="#FFC700"/>
<stop offset="0.455" stop-color="#FFE927"/>
<stop offset="1" stop-color="#EE821F"/>
</linearGradient>
<linearGradient id="paint3_linear_266_2907" x1="175" y1="10.5388" x2="175" y2="455.473" gradientUnits="userSpaceOnUse">
<stop stop-color="#FFC700"/>
<stop offset="0.455" stop-color="#FFE600"/>
<stop offset="1" stop-color="#FA881F"/>
</linearGradient>
</defs>
</svg>
