<svg xmlns="http://www.w3.org/2000/svg" version="1.1"
     xmlnsXlink="http://www.w3.org/1999/xlink"
     xmlnsSvgjs="http://svgjs.dev/svgjs"
     viewBox="0 0 50 50" opacity="0.95">
    <defs><linearGradient x1="50%" y1="0%" x2="50%" y2="100%" id="uundulate-grad">
        <stop stop-color="hsl(37, 91%, 55%)" stop-opacity="1" offset="45%"></stop>
        <stop stop-color="hsl(331, 36%, 79%)" stop-opacity="1" offset="100%"></stop>
    </linearGradient></defs><g stroke-width="5" stroke="url(#uundulate-grad)" fill="none">
    <path d="M664.4908314607206 364.8410647723458C690.2008837827523 453.7638440205865 622.5167394902608 590.1982291619634 532.2894486210505 668.7830093125167C442.06215775184 747.3677894630698 312.1337977404346 783.046908518917 231.39983528851008 742.0480094950019C150.6658728365855 701.0491104710869 163.90228260663912 560.4908448956278 144.7664288518123 471.98829399772524C125.63057509698547 383.4857430998227 126.4176883034757 406.8264132942395 139.54773726534086 317.23576518507036C152.677786227206 227.64511707590134 151.67952632502283 57.63695312873631 207.79066386876423 41.95318307371366C263.9018014125056 26.269413018690955 313.7353292269745 174.68536023374668 408.8811974752988 241.9536689209616C504.0270657236231 309.22197760817653 638.780779138689 275.91828552410493 664.4908314607206 364.8410647723458C690.2008837827523 453.7638440205865 622.5167394902608 590.1982291619634 532.2894486210505 668.7830093125167 "></path><path d="M649.7969150292006 366.79432199744974C674.0786311111193 450.7769468430106 610.1547170570996 579.6316439209776 524.9400534584009 653.8506029520556C439.7253898597022 728.0695619831336 317.0152720711527 761.7665077581005 240.7665297554462 723.0453253466251C164.5177874397396 684.3241429351497 177.01884111145694 551.5746698916605 158.94609034300936 467.98892737697486C140.87333957456178 384.4031848622892 141.61672426958035 406.44715115701604 154.01732606689745 321.83376127613417C166.41792786421456 237.2203713952523 165.475126845486 76.65710544515201 218.46897897013065 61.84465594874172C271.4628310947753 47.03220645233142 318.5278295862181 187.20282326655064 408.3878162651911 250.73400369336468C498.24780294416405 314.2651841201788 625.5151989472818 282.8116971518891 649.7969150292006 366.79432199744974C674.0786311111193 450.7769468430106 610.1547170570996 579.6316439209776 524.9400534584009 653.8506029520556 "></path><path d="M635.1029528213132 368.747609740132C657.9563326631192 447.7900801830127 597.7926488475712 569.0650891975699 517.5906125193842 638.9182271091729C437.3885761911972 708.7713650207756 321.8967006255035 740.486137514862 250.13317844601505 704.0426717158264C178.36965626652653 667.5992059167909 190.13535383990757 542.6585254052716 173.12570605783924 463.9895912738026C156.11605827577097 385.32065714233363 156.8157144593178 406.0679195373708 168.48686909208686 326.4317878847761C180.15802372485587 246.7956562321814 179.27068158958195 95.67728827914584 229.14724829512983 81.7361593413479C279.02381500067776 67.79503040354996 323.3202841690945 199.72031681693278 407.89438927871606 259.514368983346C492.4684943883377 319.3084211497593 612.2495729795074 289.7051392972513 635.1029528213132 368.747609740132C657.9563326631192 447.7900801830127 597.7926488475712 569.0650891975699 517.5906125193842 638.9182271091729 "></path><path d="M620.4090516485822 370.70086696523595C641.8340952502754 444.8031830054367 585.430641673199 558.498503956584 510.2412326155238 623.9858207487117C435.0518235578485 689.4731375408394 326.7781902150107 719.2057367540453 259.49988817174017 685.0399875674495C192.2215861284697 650.8742383808536 203.2519276035144 533.7423504013043 187.30538280782537 459.9902246530522C171.35883801213635 386.23809890480015 172.0147656842115 405.68865740014735 182.95647315243247 331.0297839758399C193.89818062065348 256.37091055153235 193.0662973688341 114.69744059556155 239.8255786552853 101.62763221637596C286.58485994173645 88.55782383719037 328.1127997871272 212.2377798497368 407.4010233273974 268.2947037557492C486.68924686766763 324.35162766176165 598.9840080468892 296.5985509250354 620.4090516485822 370.70086696523595C641.8340952502754 444.8031830054367 585.430641673199 558.498503956584 510.2412326155238 623.9858207487117 "></path><path d="M605.715089440695 372.65418522549635C625.7117968022751 441.8163468630171 573.0685734636708 547.9319797507546 502.8917916765072 609.053475423407C432.7150098893435 670.1749710960595 331.6596187693615 697.9253970283851 268.8665368623091 666.037364454229C206.07345495525658 634.1493318800729 216.36844033196502 524.8262364324935 201.48499852265525 455.9909190674582C186.60155671334547 387.1556017024229 187.21375587394897 405.30945629808036 197.42601617762188 335.62784110205996C207.63827648129478 265.94622590603956 206.86185211293008 133.7176539471335 250.5038479802845 121.51916612656026C294.14584384763896 109.32067830598709 332.9052543700036 224.75530391769706 406.9075963409225 277.07509956330864C480.9099383118414 329.3948952089203 585.7183820791149 303.49202358797584 605.715089440695 372.65418522549635C625.7117968022751 441.8163468630171 573.0685734636708 547.9319797507546 502.8917916765072 609.053475423407 "></path><path d="M591.021188267964 374.6074424506004C609.5895593894313 438.829449685441 560.7065662892986 537.3653945097687 495.5424117726466 594.1210690629459C430.37825725599475 650.8767436161233 336.5411083588686 676.6449962675684 278.2332465880342 647.0346803058521C219.92538481719976 617.4243643441357 229.48501409557184 515.9100614285262 215.66467527264138 451.99155244670783C201.84433644971085 388.07304346488934 202.41280709884268 404.9301941608569 211.89562023796753 340.22583719312377C221.3784333770924 275.5214802253905 220.6574678921823 152.73780626354915 261.18217834044 141.41063900158832C301.70688878869765 130.0834717396275 337.69776998803627 237.27276695050102 406.41423038960386 285.85543433571183C475.13069079117145 334.43810172092253 572.4528171464967 310.3854352157598 591.021188267964 374.6074424506004C609.5895593894313 438.829449685441 560.7065662892986 537.3653945097687 495.5424117726466 594.1210690629459 "></path><path d="M576.3272108012877 376.5607149344935C593.4672456826421 435.84256776665404 548.3444828209812 526.7988245275719 488.1929555748409 579.1886779612742C428.0414283287007 631.5785313949762 341.4225216544304 655.364610765541 287.599880019814 628.0320114162644C233.77723838519762 600.6994120669876 242.6015115652334 506.9939016833482 229.8442757286822 447.9922010847465C217.08703989213092 388.9905004861448 217.61178202979107 404.5509472824226 226.36514800436788 344.82384854297663C235.11851397894463 285.09674980353054 234.4530073774892 171.7579738387539 271.8604324066501 161.30212713540544C309.26785743581104 150.84628043205703 342.4902093121236 249.7902452420941 405.9207881443399 294.6357843669041C469.35136697655605 339.48132349171397 559.1871759199332 317.278862102333 576.3272108012877 376.5607149344935C593.4672456826421 435.84256776665404 548.3444828209812 526.7988245275719 488.1929555748409 579.1886779612742 "></path><path d="M561.6332791109785 378.51397215959764C577.3449777522201 432.85567058907804 535.9824451290309 516.2322392865862 480.8435451534024 564.2562716008131C425.7046451777737 612.2803039150401 346.3039807263594 634.0842100047244 296.96655922796106 609.0293272678875C247.62913772956267 583.9744445310505 255.7180548112621 498.07772667938093 244.02392196109014 443.99283446399613C232.32978911091823 389.9079422486112 232.8108027371067 404.17168514519926 240.83472154713542 349.42184463404044C248.85864035716412 294.67200412288156 248.24859263916323 190.77812615516962 282.53873224922745 181.1936000104335C316.82887185929167 171.60907386569744 347.28269441257817 262.3077082748981 405.427391675443 303.4161191393073C463.57208893830784 344.52453000371634 545.921580469737 324.1722737301171 561.6332791109785 378.51397215959764C577.3449777522201 432.85567058907804 535.9824451290309 516.2322392865862 480.8435451534024 564.2562716008131 "></path><path d="M546.9393474206695 380.4672599022798C561.2227098217982 429.8688039290802 523.6204074370806 505.6656845631785 473.49413473196375 549.3238957579302C423.36786202684686 592.982106952682 351.18543979828837 612.803839761486 306.33323843610805 590.0266736370887C261.4810370739277 567.2495075126915 268.83459805729086 489.161582192992 258.20356819349814 439.9934983608239C247.57253832970548 390.82541452865587 248.0098234444223 403.79245352555404 255.3042950899029 354.01987124268237C262.59876673538355 304.24728895981065 262.0441779008373 209.7983089891634 293.2170320918048 201.08510340303968C324.38988628277224 192.37189781691598 352.0751795130327 274.82520182528026 404.93399520654623 312.19648442928855C457.79281090005975 349.56776703329683 532.6559850195408 331.0657158754793 546.9393474206695 380.4672599022798C561.2227098217982 429.8688039290802 523.6204074370806 505.6656845631785 473.49413473196375 549.3238957579302 "></path><path d="M532.2454157303603 382.42051712738385C545.1004418913761 426.8819067515042 511.2583697451304 495.0990993221926 466.14472431052525 534.3914893974693C421.03107887592 573.6838794727458 356.0668988702173 591.5234390006694 315.69991764425504 571.0239894887119C275.3329364182928 550.5245399767543 281.95114130331956 480.24540718902483 272.38321442590615 435.9941317400735C262.81528754849273 391.7428562911223 263.2088441517379 403.4131913883307 269.7738686326704 358.6178673337461C276.33889311360304 313.8225432791616 275.8397631625114 228.8184613055791 303.8953319343821 220.97657627806774C331.9509007062528 213.13469125055644 356.86766461348725 287.3426648580843 404.4405987376494 320.97681920169174C452.01353286181154 354.6109735452992 519.3903895693445 337.9591275032634 532.2454157303603 382.42051712738385C545.1004418913761 426.8819067515042 511.2583697451304 495.0990993221926 466.14472431052525 534.3914893974693 "></path><path d="M517.5514840400512 384.373804870066C528.9781739609541 423.8950400915064 498.8963320531801 484.53254459878497 458.79531388908663 519.4591135545865C418.69429572499314 554.3856825103878 360.9483579421463 570.243068757431 325.06659685240203 552.0213358579132C289.18483576265777 533.7996029583954 295.0676845493483 471.3292627026358 286.56286065831415 431.99479563690124C278.05803676728 392.6603285711668 278.40786485905346 403.0339597686854 284.24344217543796 363.21589394238805C290.07901949182246 323.3978281160907 289.6353484241855 247.83864413957292 314.5736317769595 240.86807967067392C339.51191512973344 233.89751520177498 361.6601497139418 299.8601584084664 403.94720226875256 329.757184491673C446.23425482356333 359.65421057487964 506.1247941191482 344.85256964862566 517.5514840400512 384.373804870066C528.9781739609541 423.8950400915064 498.8963320531801 484.53254459878497 458.79531388908663 519.4591135545865 "></path><path d="M502.85755234974204 386.32706209517005C512.8559060305321 420.9081429139304 486.53429436122997 473.9659593577992 451.4459034676481 504.5267071941254C416.3575125740663 535.0874550304516 365.8298170140753 548.9626679966144 334.4332760605491 533.0186517095364C303.0367351070228 517.0746354224583 308.184227795377 462.4130876986686 300.74250689072215 427.995429016151C293.3007859860673 393.57777033363334 293.60688556636904 402.65469763146206 298.7130157182055 367.81389003345186C303.81914587004195 332.97308243544165 303.4309336858596 266.8587964559886 325.2519316195368 260.75955254570204C347.072929553214 254.6603086354154 366.45263481439633 312.3776214412704 403.4538057998558 338.5375192640762C440.45497678531524 364.697417086882 492.859198668952 351.7459812764098 502.85755234974204 386.32706209517005C512.8559060305321 420.9081429139304 486.53429436122997 473.9659593577992 451.4459034676481 504.5267071941254 "></path><path d="M488.1636206594329 388.2803650966413C496.73363810011006 417.92129151272155 474.1722566692797 463.3994198931805 444.0964930462095 489.5943466100316C414.0207294231394 515.7892733268826 370.71127608600426 527.682313012165 343.79995526869607 514.0160133375267C316.8886344513879 500.34971366288835 321.30077104140577 453.49695847106864 314.92215312313016 423.9961081717678C308.54353520485455 394.49525787246694 308.8059062736846 402.27548127060584 313.182589260973 372.41193190088285C317.5592722482614 342.5483825311598 317.22651894753363 285.87899454877146 335.93023146211414 280.6510711970973C354.6339439766946 275.42314784542305 371.2451199148509 324.8951302504416 402.960409330959 347.3178998128466C434.6756987470671 369.7406693752515 479.5936032187557 358.63943868056106 488.1636206594329 388.2803650966413C496.73363810011006 417.92129151272155 474.1722566692797 463.3994198931805 444.0964930462095 489.5943466100316 "></path><path d="M473.4696889691238 390.2336223217454C480.61137016968814 414.93439433514556 461.8102189773294 452.8328346521947 436.74708262477094 474.66194024957053C411.6839462722125 496.49104584694646 375.59273515793325 506.40191225134845 353.16663447684306 495.0133291891498C330.7405337957529 483.6247461269512 334.41731428743446 444.58078346710147 329.10179935553816 419.9967415510174C323.7862844236418 395.4126996349334 324.0049269810002 401.8962191333825 327.6521628037405 377.00992799194665C331.29939862648087 352.1236368505108 331.0221042092077 304.89914686518716 346.60853130469144 300.54254407212534C362.1949584001752 296.18594127906346 376.0376050153054 337.4125932832456 402.4670128620622 356.09823458524977C428.89642070881894 374.7838758872539 466.3280077685595 365.53285030834513 473.4696889691238 390.2336223217454C480.61137016968814 414.93439433514556 461.8102189773294 452.8328346521947 436.74708262477094 474.66194024957053 "></path><path d="M458.77575727881464 392.18691006442754C464.4891022392661 411.94752767514774 449.4481812853791 442.266279928787 429.3976722033324 459.72956440668776C409.34716312128563 477.19284888458844 380.47419422986223 485.12154200811005 362.5333136849901 476.0106755583511C344.592433140118 466.89980910859225 347.5338575334632 435.6646389807124 343.28144558794617 415.99740544784515C339.02903364242906 396.33017191497794 339.2039476883158 401.51698751373726 342.12173634650804 381.6079546005886C345.0395250047003 361.6989216874399 344.8176894708818 323.919329699181 357.2868311472688 320.4340474647315C369.7559728236558 316.948765230282 380.83009011575996 349.93008683362774 401.97361639316534 364.87859987523103C423.11714267057073 379.8271129168344 453.06241231836316 372.42629245370733 458.77575727881464 392.18691006442754C464.4891022392661 411.94752767514774 449.4481812853791 442.266279928787 429.3976722033324 459.72956440668776 "></path><path d="M444.08181032971646 394.1401672895316C448.366819050055 408.96063049757174 437.08612833463985 431.6996946878012 422.04824652310475 444.79715804622674C407.0103647115697 457.89462140465224 385.35563804300216 463.8411412472934 371.89997763434803 457.0079914099743C358.44431722569396 450.1748415726551 360.65038552070286 426.74846397674526 357.46107656156505 411.99803882709483C354.27176760242725 397.2476136774444 354.4029531368423 401.13772537651386 356.5912946304865 386.20595069165233C358.7796361241307 371.27417600679087 358.61325947376685 342.9394820155967 367.96511573105704 340.3255203397596C377.3169719883473 337.71155866392246 385.62255995742544 362.44754986643176 401.4802046654795 373.6589346476342C417.3378493735335 384.8703194288367 439.79680160937784 379.31970408149147 444.08181032971646 394.1401672895316C448.366819050055 408.96063049757174 437.08612833463985 431.6996946878012 422.04824652310475 444.79715804622674 "></path><path d="M429.3878633806183 396.0934550322138C432.244535860844 405.97376383757387 424.7240753839005 421.13313996439354 414.6988208428771 429.8647822033439C404.6735663018537 438.5964244422942 390.237081856142 442.560771004055 381.26664158370596 438.00533777917553C372.2962013112699 433.44990455429615 373.76691350794255 417.8323194903562 371.640707535184 407.9987027239226C369.5145015624255 398.165085957489 369.60195858536883 400.75849375686863 371.06085291446493 390.80397730029426C372.5197472435611 380.84946084371995 372.4088294766518 361.95966484959047 378.64340031484534 360.21702373236576C384.8779711530388 358.474382615141 390.4150297990909 374.96504341681384 400.9867929377936 382.43929993761554C411.5585560764963 389.9135564584172 426.5311909003925 386.21314622685367 429.3878633806183 396.0934550322138C432.244535860844 405.97376383757387 424.7240753839005 421.13313996439354 414.6988208428771 429.8647822033439 "></path><path d="M414.6939316903091 398.0467275161069C416.122267930422 402.98688191878693 412.36203769195026 410.56656998219677 407.34941042143856 414.93239110167195C402.33678315092686 419.2982122211471 395.118540928071 421.2803855020275 390.633320791853 419.00266888958777C386.14810065563495 416.7249522771481 386.88345675397125 408.9161597451781 385.820353767592 403.9993513619613C384.75725078121275 399.08254297874447 384.8009792926844 400.3792468784343 385.53042645723247 395.40198865014713C386.25987362178057 390.42473042186 386.2044147383259 380.97983242479523 389.32170015742264 380.1085118661829C392.4389855765194 379.2371913075705 395.20751489954546 387.4825217084069 400.49339646889683 391.21964996880774C405.77927803824815 394.95677822920857 413.26559545019626 393.10657311342686 414.6939316903091 398.0467275161069C416.122267930422 402.98688191878693 412.36203769195026 410.56656998219677 407.34941042143856 414.93239110167195 "></path></g></svg>