<svg width="80" height="64" viewBox="0 0 750 750" fill="none" xmlns="http://www.w3.org/2000/svg">
    <path d="M0 100C0 44.7715 44.7715 0 100 0H650C705.228 0 750 44.7715 750 100V650C750 705.228 705.228 750 650 750H100C44.7715 750 0 705.228 0 650V100Z" fill="#2196F3"/>
    <path d="M253.435 386.1H149.035C152.235 407.3 164.535 417.9 185.935 417.9C194.735 417.9 202.335 416.4 208.735 413.4C215.335 410.4 221.735 405.4 227.935 398.4L248.635 418.2C242.835 427.8 234.035 435.5 222.235 441.3C210.635 447.1 197.835 450 183.835 450C160.435 450 142.235 443.2 129.235 429.6C116.235 415.8 109.735 396.8 109.735 372.6C109.735 348.2 116.235 329 129.235 315C142.435 301 160.535 294 183.535 294C205.535 294 222.635 300.9 234.835 314.7C247.235 328.5 253.435 347.7 253.435 372.3V386.1ZM215.935 358.2C215.935 348 212.935 340 206.935 334.2C201.135 328.2 193.035 325.2 182.635 325.2C173.235 325.2 165.635 328.3 159.835 334.5C154.035 340.5 150.335 349 148.735 360H215.935V358.2Z" fill="#F2A122"/>
    <path d="M253.435 386.1H149.035C152.235 407.3 164.535 417.9 185.935 417.9C194.735 417.9 202.335 416.4 208.735 413.4C215.335 410.4 221.735 405.4 227.935 398.4L248.635 418.2C242.835 427.8 234.035 435.5 222.235 441.3C210.635 447.1 197.835 450 183.835 450C160.435 450 142.235 443.2 129.235 429.6C116.235 415.8 109.735 396.8 109.735 372.6C109.735 348.2 116.235 329 129.235 315C142.435 301 160.535 294 183.535 294C205.535 294 222.635 300.9 234.835 314.7C247.235 328.5 253.435 347.7 253.435 372.3V386.1ZM215.935 358.2C215.935 348 212.935 340 206.935 334.2C201.135 328.2 193.035 325.2 182.635 325.2C173.235 325.2 165.635 328.3 159.835 334.5C154.035 340.5 150.335 349 148.735 360H215.935V358.2Z" fill="url(#paint0_linear_266_2882)"/>
    <path d="M277.132 336.9C277.132 316.9 276.732 303.6 275.932 297H309.532C310.532 305 311.032 313.7 311.032 323.1H311.632C314.832 314.1 320.632 307 329.032 301.8C337.432 296.6 347.232 294 358.432 294C369.232 294 378.432 296.4 386.032 301.2C393.632 305.8 398.732 312.2 401.332 320.4C405.332 312.2 411.432 305.8 419.632 301.2C427.832 296.4 437.032 294 447.232 294C463.832 294 476.832 299.4 486.232 310.2C495.832 320.8 500.632 335.5 500.632 354.3V447H462.532V358.5C462.532 347.9 460.232 339.7 455.632 333.9C451.032 327.9 444.732 324.9 436.732 324.9C427.932 324.9 420.832 328 415.432 334.2C410.232 340.2 407.632 348.4 407.632 358.8V447H369.832V359.7C369.832 348.7 367.632 340.2 363.232 334.2C358.832 328 352.632 324.9 344.632 324.9C336.032 324.9 328.932 328.2 323.332 334.8C317.932 341.2 315.232 349.5 315.232 359.7V447H277.132V336.9ZM579.743 450C566.743 450 555.243 447.4 545.243 442.2C535.443 437 528.543 430.1 524.543 421.5L548.243 405C551.843 410 556.443 414 562.043 417C567.643 420 573.343 421.5 579.143 421.5C585.943 421.5 591.543 419.8 595.943 416.4C600.343 412.8 602.543 408.4 602.543 403.2C602.543 399 600.943 395.7 597.743 393.3C594.543 390.7 587.743 387.4 577.343 383.4C559.143 376.4 546.343 369.3 538.943 362.1C531.543 354.9 527.843 346 527.843 335.4C527.843 323 532.843 313 542.843 305.4C553.043 297.8 566.543 294 583.343 294C594.543 294 604.643 296.2 613.643 300.6C622.643 304.8 629.943 310.9 635.543 318.9L613.343 335.4C606.343 326.8 596.843 322.5 584.843 322.5C578.843 322.5 574.143 323.6 570.743 325.8C567.543 327.8 565.943 330.8 565.943 334.8C565.943 337.6 566.643 339.9 568.043 341.7C569.443 343.5 572.143 345.4 576.143 347.4C580.143 349.4 586.543 352.1 595.343 355.5C607.143 360.1 616.243 364.6 622.643 369C629.243 373.2 633.843 377.9 636.443 383.1C639.243 388.1 640.643 394.2 640.643 401.4C640.643 411 638.043 419.5 632.843 426.9C627.843 434.1 620.743 439.8 611.543 444C602.343 448 591.743 450 579.743 450Z" fill="white"/>
    <defs>
        <linearGradient id="paint0_linear_266_2882" x1="374.5" y1="232" x2="374.5" y2="517" gradientUnits="userSpaceOnUse">
            <stop stop-color="#FFE927"/>
            <stop offset="0.5" stop-color="#F2A122"/>
            <stop offset="1" stop-color="#F27922"/>
        </linearGradient>
    </defs>
</svg>
