<svg width="200" height="200" viewBox="0 0 3286 1134" fill="none" xmlns="http://www.w3.org/2000/svg">
<path d="M1209.98 283C1226.17 283 1240.93 284.43 1254.27 287.29C1267.6 290.15 1279.03 294.83 1288.56 301.34C1298.08 307.85 1305.47 316.5 1310.7 327.29C1315.94 338.09 1318.56 351.42 1318.56 367.29C1318.56 384.43 1314.67 398.72 1306.89 410.15C1299.11 421.58 1287.6 430.95 1272.37 438.25C1293.32 444.28 1308.95 454.84 1319.28 469.92C1329.59 485 1334.76 503.18 1334.76 524.44C1334.76 541.58 1331.43 556.43 1324.76 568.96C1318.09 581.5 1309.12 591.74 1297.85 599.67C1286.58 607.61 1273.72 613.48 1259.28 617.29C1244.83 621.1 1229.99 623 1214.76 623H1050V283H1210H1209.98ZM1200.46 420.62C1213.79 420.62 1224.75 417.45 1233.32 411.1C1241.89 404.75 1246.18 394.43 1246.18 380.15C1246.18 372.22 1244.75 365.71 1241.89 360.63C1239.03 355.56 1235.22 351.58 1230.46 348.72C1225.7 345.86 1220.22 343.88 1214.03 342.77C1207.84 341.66 1201.41 341.1 1194.74 341.1H1124.74V420.63H1200.46V420.62ZM1204.75 564.91C1212.05 564.91 1219.04 564.2 1225.7 562.77C1232.36 561.34 1238.24 558.96 1243.32 555.63C1248.39 552.3 1252.44 547.77 1255.46 542.06C1258.47 536.35 1259.98 529.05 1259.98 520.15C1259.98 502.69 1255.05 490.23 1245.22 482.77C1235.38 475.31 1222.36 471.58 1206.17 471.58H1124.74V564.91H1204.74H1204.75Z" fill="black"/>
<path d="M1534.84 623V588.71H1533.41C1524.84 603 1513.72 613.32 1500.08 619.66C1486.43 626.01 1472.46 629.18 1458.17 629.18C1440.07 629.18 1425.23 626.8 1413.65 622.04C1402.06 617.28 1392.94 610.54 1386.27 601.8C1379.6 593.07 1374.92 582.44 1372.22 569.89C1369.52 557.35 1368.17 543.46 1368.17 528.22V376.79H1435.79V515.84C1435.79 536.16 1438.96 551.32 1445.31 561.32C1451.66 571.32 1462.93 576.32 1479.12 576.32C1497.53 576.32 1510.86 570.84 1519.12 559.89C1527.37 548.94 1531.5 530.92 1531.5 505.84V376.79H1599.12V622.98H1534.83L1534.84 623Z" fill="black"/>
<path d="M1699.78 561.81C1702.79 567.05 1706.69 571.33 1711.45 574.67C1716.21 578 1721.69 580.47 1727.88 582.05C1734.07 583.64 1740.5 584.43 1747.17 584.43C1751.93 584.43 1756.93 583.88 1762.17 582.76C1767.41 581.65 1772.17 579.9 1776.46 577.52C1780.75 575.14 1784.32 571.97 1787.17 568C1790.03 564.03 1791.46 559.03 1791.46 553C1791.46 542.84 1784.71 535.22 1771.22 530.14C1757.72 525.07 1738.91 519.98 1714.79 514.9C1704.95 512.68 1695.34 510.06 1685.98 507.04C1676.61 504.03 1668.28 500.06 1660.98 495.13C1653.67 490.21 1647.8 484.02 1643.36 476.56C1638.91 469.1 1636.69 459.97 1636.69 449.18C1636.69 433.31 1639.78 420.3 1645.98 410.13C1652.17 399.97 1660.34 391.96 1670.5 386.08C1680.66 380.21 1692.08 376.08 1704.79 373.7C1717.48 371.32 1730.5 370.13 1743.84 370.13C1757.18 370.13 1770.11 371.4 1782.65 373.94C1795.19 376.48 1806.38 380.77 1816.22 386.8C1826.06 392.83 1834.23 400.85 1840.74 410.85C1847.24 420.85 1851.13 433.47 1852.41 448.71H1788.12C1787.17 435.7 1782.24 426.89 1773.36 422.28C1764.47 417.68 1753.99 415.38 1741.93 415.38C1738.12 415.38 1733.99 415.62 1729.55 416.09C1725.1 416.57 1721.05 417.6 1717.41 419.19C1713.76 420.78 1710.66 423.08 1708.12 426.09C1705.58 429.11 1704.31 433.16 1704.31 438.23C1704.31 444.26 1706.53 449.18 1710.98 452.99C1715.42 456.8 1721.22 459.9 1728.36 462.28C1735.5 464.66 1743.67 466.8 1752.88 468.71C1762.08 470.61 1771.45 472.68 1780.98 474.9C1790.82 477.12 1800.42 479.83 1809.79 482.99C1819.15 486.17 1827.48 490.37 1834.79 495.61C1842.09 500.85 1847.96 507.36 1852.41 515.13C1856.85 522.91 1859.08 532.51 1859.08 543.94C1859.08 560.13 1855.82 573.7 1849.32 584.65C1842.81 595.6 1834.32 604.41 1823.84 611.08C1813.36 617.75 1801.38 622.43 1787.89 625.13C1774.39 627.82 1760.66 629.18 1746.7 629.18C1732.74 629.18 1718.44 627.75 1704.79 624.89C1691.14 622.03 1678.99 617.27 1668.36 610.6C1657.72 603.93 1648.99 595.12 1642.17 584.17C1635.34 573.22 1631.61 559.49 1630.98 542.98H1695.27C1695.27 550.29 1696.77 556.55 1699.79 561.79L1699.78 561.81Z" fill="black"/>
<path d="M1892.35 338.71V283H1959.97V338.71H1892.35ZM1959.97 376.81V623H1892.35V376.81H1959.97Z" fill="black"/>
<path d="M2068.78 376.81V411.1H2070.21C2078.78 396.81 2089.89 386.42 2103.54 379.91C2117.19 373.41 2131.16 370.15 2145.45 370.15C2163.55 370.15 2178.38 372.61 2189.97 377.53C2201.55 382.45 2210.68 389.28 2217.35 398.01C2224.02 406.75 2228.7 417.38 2231.4 429.92C2234.09 442.46 2235.45 456.35 2235.45 471.59V623.02H2167.83V483.97C2167.83 463.66 2164.65 448.49 2158.31 438.49C2151.96 428.49 2140.69 423.49 2124.5 423.49C2106.08 423.49 2092.75 428.97 2084.5 439.92C2076.24 450.87 2072.12 468.89 2072.12 493.97V623.02H2004.5V376.83H2068.79L2068.78 376.81Z" fill="black"/>
<path d="M2350.73 563.95C2360.89 573.79 2375.49 578.71 2394.54 578.71C2408.19 578.71 2419.93 575.3 2429.78 568.47C2439.62 561.65 2445.65 554.42 2447.87 546.8H2507.39C2497.87 576.32 2483.26 597.44 2463.58 610.13C2443.89 622.83 2420.08 629.18 2392.15 629.18C2372.78 629.18 2355.32 626.09 2339.77 619.89C2324.21 613.7 2311.03 604.89 2300.25 593.46C2289.45 582.03 2281.12 568.39 2275.25 552.51C2269.37 536.64 2266.44 519.18 2266.44 500.13C2266.44 481.08 2269.45 464.58 2275.49 448.7C2281.52 432.83 2290.09 419.1 2301.2 407.51C2312.31 395.93 2325.56 386.8 2340.96 380.13C2356.35 373.46 2373.42 370.13 2392.15 370.13C2413.1 370.13 2431.35 374.18 2446.91 382.27C2462.46 390.36 2475.24 401.24 2485.24 414.89C2495.24 428.54 2502.46 444.1 2506.91 461.56C2511.35 479.02 2512.94 497.27 2511.67 516.32H2334.05C2335 538.23 2340.55 554.1 2350.72 563.94L2350.73 563.95ZM2427.16 434.42C2419.06 425.54 2406.76 421.09 2390.25 421.09C2379.45 421.09 2370.49 422.92 2363.34 426.57C2356.2 430.22 2350.48 434.75 2346.2 440.14C2341.91 445.54 2338.89 451.26 2337.15 457.28C2335.4 463.31 2334.37 468.71 2334.06 473.47H2444.06C2440.88 456.33 2435.25 443.31 2427.16 434.42Z" fill="black"/>
<path d="M2598.06 561.81C2601.07 567.05 2604.97 571.33 2609.73 574.67C2614.49 578 2619.97 580.47 2626.16 582.05C2632.35 583.64 2638.78 584.43 2645.45 584.43C2650.21 584.43 2655.21 583.88 2660.45 582.76C2665.69 581.65 2670.45 579.9 2674.74 577.52C2679.03 575.14 2682.6 571.97 2685.45 568C2688.31 564.03 2689.74 559.03 2689.74 553C2689.74 542.84 2682.99 535.22 2669.5 530.14C2656 525.07 2637.19 519.98 2613.07 514.9C2603.23 512.68 2593.62 510.06 2584.26 507.04C2574.89 504.03 2566.56 500.06 2559.26 495.13C2551.95 490.21 2546.08 484.02 2541.64 476.56C2537.19 469.1 2534.97 459.97 2534.97 449.18C2534.97 433.31 2538.06 420.3 2544.26 410.13C2550.45 399.97 2558.62 391.96 2568.78 386.08C2578.94 380.21 2590.36 376.08 2603.07 373.7C2615.76 371.32 2628.78 370.13 2642.12 370.13C2655.46 370.13 2668.39 371.4 2680.93 373.94C2693.47 376.48 2704.66 380.77 2714.5 386.8C2724.34 392.83 2732.51 400.85 2739.02 410.85C2745.52 420.85 2749.41 433.47 2750.69 448.71H2686.4C2685.45 435.7 2680.52 426.89 2671.64 422.28C2662.75 417.68 2652.27 415.38 2640.21 415.38C2636.4 415.38 2632.27 415.62 2627.83 416.09C2623.38 416.57 2619.33 417.6 2615.69 419.19C2612.04 420.78 2608.94 423.08 2606.4 426.09C2603.86 429.11 2602.59 433.16 2602.59 438.23C2602.59 444.26 2604.81 449.18 2609.26 452.99C2613.7 456.8 2619.5 459.9 2626.64 462.28C2633.78 464.66 2641.95 466.8 2651.16 468.71C2660.36 470.61 2669.73 472.68 2679.26 474.9C2689.1 477.12 2698.7 479.83 2708.07 482.99C2717.43 486.17 2725.76 490.37 2733.07 495.61C2740.37 500.85 2746.24 507.36 2750.69 515.13C2755.13 522.91 2757.36 532.51 2757.36 543.94C2757.36 560.13 2754.1 573.7 2747.6 584.65C2741.09 595.6 2732.6 604.41 2722.12 611.08C2711.64 617.75 2699.66 622.43 2686.17 625.13C2672.67 627.82 2658.94 629.18 2644.98 629.18C2631.02 629.18 2616.72 627.75 2603.07 624.89C2589.42 622.03 2577.27 617.27 2566.64 610.6C2556 603.93 2547.27 595.12 2540.45 584.17C2533.62 573.22 2529.89 559.49 2529.26 542.98H2593.55C2593.55 550.29 2595.05 556.55 2598.07 561.79L2598.06 561.81Z" fill="black"/>
<path d="M2845.53 561.81C2848.54 567.05 2852.44 571.33 2857.2 574.67C2861.96 578 2867.44 580.47 2873.63 582.05C2879.82 583.64 2886.25 584.43 2892.92 584.43C2897.68 584.43 2902.68 583.88 2907.92 582.76C2913.16 581.65 2917.92 579.9 2922.21 577.52C2926.5 575.14 2930.07 571.97 2932.92 568C2935.78 564.03 2937.21 559.03 2937.21 553C2937.21 542.84 2930.46 535.22 2916.97 530.14C2903.47 525.07 2884.66 519.98 2860.54 514.9C2850.7 512.68 2841.09 510.06 2831.73 507.04C2822.36 504.03 2814.03 500.06 2806.73 495.13C2799.42 490.21 2793.55 484.02 2789.11 476.56C2784.66 469.1 2782.44 459.97 2782.44 449.18C2782.44 433.31 2785.53 420.3 2791.73 410.13C2797.92 399.97 2806.09 391.96 2816.25 386.08C2826.41 380.21 2837.83 376.08 2850.54 373.7C2863.23 371.32 2876.25 370.13 2889.59 370.13C2902.93 370.13 2915.86 371.4 2928.4 373.94C2940.94 376.48 2952.13 380.77 2961.97 386.8C2971.81 392.83 2979.98 400.85 2986.49 410.85C2992.99 420.85 2996.88 433.47 2998.16 448.71H2933.87C2932.92 435.7 2927.99 426.89 2919.11 422.28C2910.22 417.68 2899.74 415.38 2887.68 415.38C2883.87 415.38 2879.74 415.62 2875.3 416.09C2870.85 416.57 2866.8 417.6 2863.16 419.19C2859.51 420.78 2856.41 423.08 2853.87 426.09C2851.33 429.11 2850.06 433.16 2850.06 438.23C2850.06 444.26 2852.28 449.18 2856.73 452.99C2861.17 456.8 2866.97 459.9 2874.11 462.28C2881.25 464.66 2889.42 466.8 2898.63 468.71C2907.83 470.61 2917.2 472.68 2926.73 474.9C2936.57 477.12 2946.17 479.83 2955.54 482.99C2964.9 486.17 2973.23 490.37 2980.54 495.61C2987.84 500.85 2993.71 507.36 2998.16 515.13C3002.6 522.91 3004.83 532.51 3004.83 543.94C3004.83 560.13 3001.57 573.7 2995.07 584.65C2988.56 595.6 2980.07 604.41 2969.59 611.08C2959.11 617.75 2947.13 622.43 2933.64 625.13C2920.14 627.82 2906.41 629.18 2892.45 629.18C2878.49 629.18 2864.19 627.75 2850.54 624.89C2836.89 622.03 2824.74 617.27 2814.11 610.6C2803.47 603.93 2794.74 595.12 2787.92 584.17C2781.09 573.22 2777.36 559.49 2776.73 542.98H2841.02C2841.02 550.29 2842.52 556.55 2845.54 561.79L2845.53 561.81Z" fill="black"/>
<path d="M1059.5 729.125H1071.75V810.25H1120.62V729.125H1132.94V810.25H1142.38V840.688H1130.88V821H1059.5V729.125ZM1209.19 799.625C1208.73 802.542 1207.73 805.396 1206.19 808.188C1204.65 810.979 1202.62 813.479 1200.12 815.688C1197.62 817.896 1194.67 819.667 1191.25 821C1187.88 822.375 1184.12 823.062 1180 823.062C1175.5 823.062 1171.33 822.333 1167.5 820.875C1163.71 819.375 1160.42 817.146 1157.62 814.188C1154.88 811.188 1152.71 807.438 1151.12 802.938C1149.54 798.438 1148.75 793.146 1148.75 787.062C1148.75 782.979 1149.19 779.292 1150.06 776C1150.98 772.667 1152.19 769.708 1153.69 767.125C1155.23 764.5 1157 762.25 1159 760.375C1161 758.458 1163.1 756.896 1165.31 755.688C1167.56 754.438 1169.85 753.521 1172.19 752.938C1174.52 752.312 1176.77 752 1178.94 752C1183.52 752 1187.71 752.688 1191.5 754.062C1195.29 755.438 1198.54 757.542 1201.25 760.375C1204 763.167 1206.12 766.688 1207.62 770.938C1209.17 775.146 1209.94 780.104 1209.94 785.812V791.562H1161C1161.04 794.812 1161.5 797.771 1162.38 800.438C1163.25 803.062 1164.5 805.312 1166.12 807.188C1167.75 809.062 1169.71 810.521 1172 811.562C1174.33 812.562 1176.96 813.062 1179.88 813.062C1182.83 813.062 1185.33 812.646 1187.38 811.812C1189.42 810.979 1191.12 809.917 1192.5 808.625C1193.88 807.333 1194.98 805.896 1195.81 804.312C1196.69 802.729 1197.42 801.167 1198 799.625H1209.19ZM1198.38 782.375C1198.29 779.125 1197.79 776.229 1196.88 773.688C1196 771.146 1194.75 769.021 1193.12 767.312C1191.54 765.562 1189.62 764.25 1187.38 763.375C1185.12 762.458 1182.62 762 1179.88 762C1177.25 762 1174.83 762.521 1172.62 763.562C1170.42 764.562 1168.48 765.979 1166.81 767.812C1165.15 769.604 1163.81 771.75 1162.81 774.25C1161.81 776.708 1161.21 779.417 1161 782.375H1198.38ZM1223.44 754.062H1234.94V781.062H1266.19V754.062H1277.75V821H1266.19V791.062H1234.94V821H1223.44V754.062ZM1312.5 764.062H1289.44V754.062H1347.06V764.062H1324V821H1312.5V764.062ZM1358.06 754.062H1369.56V763.25H1369.81C1370.56 761.708 1371.5 760.25 1372.62 758.875C1373.79 757.5 1375.17 756.312 1376.75 755.312C1378.38 754.271 1380.23 753.458 1382.31 752.875C1384.44 752.292 1386.85 752 1389.56 752C1393.15 752 1396.58 752.688 1399.88 754.062C1403.17 755.438 1406.08 757.5 1408.62 760.25C1411.17 763 1413.19 766.458 1414.69 770.625C1416.19 774.75 1416.94 779.562 1416.94 785.062C1416.94 791.938 1416.23 797.792 1414.81 802.625C1413.44 807.417 1411.46 811.333 1408.88 814.375C1406.33 817.417 1403.25 819.625 1399.62 821C1396 822.375 1391.96 823.062 1387.5 823.062C1385.29 823.062 1383.23 822.771 1381.31 822.188C1379.4 821.604 1377.67 820.854 1376.12 819.938C1374.62 818.979 1373.33 817.938 1372.25 816.812C1371.17 815.646 1370.35 814.521 1369.81 813.438H1369.56V847.375H1358.06V754.062ZM1369.31 787.875C1369.31 791.5 1369.67 794.854 1370.38 797.938C1371.08 800.979 1372.17 803.625 1373.62 805.875C1375.12 808.125 1376.98 809.896 1379.19 811.188C1381.44 812.438 1384.08 813.062 1387.12 813.062C1390.29 813.062 1393.02 812.438 1395.31 811.188C1397.65 809.896 1399.56 808.125 1401.06 805.875C1402.56 803.625 1403.67 800.979 1404.38 797.938C1405.08 794.854 1405.44 791.5 1405.44 787.875C1405.44 784.083 1405.08 780.604 1404.38 777.438C1403.67 774.271 1402.56 771.542 1401.06 769.25C1399.56 766.958 1397.65 765.188 1395.31 763.938C1393.02 762.646 1390.29 762 1387.12 762C1384.08 762 1381.44 762.646 1379.19 763.938C1376.98 765.188 1375.12 766.958 1373.62 769.25C1372.17 771.542 1371.08 774.271 1370.38 777.438C1369.67 780.604 1369.31 784.083 1369.31 787.875ZM1458.56 754.062H1471.19L1489 808.562H1489.25L1507.06 754.062H1519.69L1494.12 823.688C1492.83 827.188 1491.65 830.229 1490.56 832.812C1489.48 835.396 1488.42 837.583 1487.38 839.375C1486.33 841.208 1485.27 842.688 1484.19 843.812C1483.15 844.938 1481.98 845.812 1480.69 846.438C1479.44 847.104 1478.02 847.542 1476.44 847.75C1474.9 848 1473.1 848.125 1471.06 848.125C1469.4 848.125 1468.08 848.042 1467.12 847.875C1466.21 847.75 1465.4 847.583 1464.69 847.375V837C1465.44 837.25 1466.42 837.5 1467.62 837.75C1468.83 838 1470.1 838.125 1471.44 838.125C1473.56 838.125 1475.27 837.604 1476.56 836.562C1477.9 835.562 1478.92 834.125 1479.62 832.25L1483.38 822.812L1458.56 754.062ZM1572.31 764.062H1541.06V821H1529.56V754.062H1583.88V821H1572.31V764.062ZM1600.19 754.062H1611.69V763.25H1611.94C1612.69 761.708 1613.62 760.25 1614.75 758.875C1615.92 757.5 1617.29 756.312 1618.88 755.312C1620.5 754.271 1622.35 753.458 1624.44 752.875C1626.56 752.292 1628.98 752 1631.69 752C1635.27 752 1638.71 752.688 1642 754.062C1645.29 755.438 1648.21 757.5 1650.75 760.25C1653.29 763 1655.31 766.458 1656.81 770.625C1658.31 774.75 1659.06 779.562 1659.06 785.062C1659.06 791.938 1658.35 797.792 1656.94 802.625C1655.56 807.417 1653.58 811.333 1651 814.375C1648.46 817.417 1645.38 819.625 1641.75 821C1638.12 822.375 1634.08 823.062 1629.62 823.062C1627.42 823.062 1625.35 822.771 1623.44 822.188C1621.52 821.604 1619.79 820.854 1618.25 819.938C1616.75 818.979 1615.46 817.938 1614.38 816.812C1613.29 815.646 1612.48 814.521 1611.94 813.438H1611.69V847.375H1600.19V754.062ZM1611.44 787.875C1611.44 791.5 1611.79 794.854 1612.5 797.938C1613.21 800.979 1614.29 803.625 1615.75 805.875C1617.25 808.125 1619.1 809.896 1621.31 811.188C1623.56 812.438 1626.21 813.062 1629.25 813.062C1632.42 813.062 1635.15 812.438 1637.44 811.188C1639.77 809.896 1641.69 808.125 1643.19 805.875C1644.69 803.625 1645.79 800.979 1646.5 797.938C1647.21 794.854 1647.56 791.5 1647.56 787.875C1647.56 784.083 1647.21 780.604 1646.5 777.438C1645.79 774.271 1644.69 771.542 1643.19 769.25C1641.69 766.958 1639.77 765.188 1637.44 763.938C1635.15 762.646 1632.42 762 1629.25 762C1626.21 762 1623.56 762.646 1621.31 763.938C1619.1 765.188 1617.25 766.958 1615.75 769.25C1614.29 771.542 1613.21 774.271 1612.5 777.438C1611.79 780.604 1611.44 784.083 1611.44 787.875ZM1671.94 774.125C1672.06 770.042 1672.83 766.604 1674.25 763.812C1675.67 760.979 1677.58 758.688 1680 756.938C1682.42 755.188 1685.27 753.938 1688.56 753.188C1691.9 752.396 1695.52 752 1699.44 752C1702.69 752 1705.83 752.333 1708.88 753C1711.96 753.667 1714.69 754.75 1717.06 756.25C1719.44 757.708 1721.33 759.625 1722.75 762C1724.21 764.333 1724.94 767.188 1724.94 770.562V809.5C1724.94 810.583 1725.23 811.521 1725.81 812.312C1726.4 813.062 1727.33 813.438 1728.62 813.438C1729.21 813.438 1729.81 813.396 1730.44 813.312C1731.06 813.188 1731.71 813.062 1732.38 812.938V820.875C1731.42 821.125 1730.46 821.354 1729.5 821.562C1728.58 821.771 1727.48 821.875 1726.19 821.875C1724.19 821.875 1722.46 821.708 1721 821.375C1719.58 821.042 1718.38 820.5 1717.38 819.75C1716.42 818.958 1715.67 817.958 1715.12 816.75C1714.58 815.5 1714.23 813.979 1714.06 812.188C1712.65 813.729 1711.15 815.167 1709.56 816.5C1707.98 817.792 1706.21 818.938 1704.25 819.938C1702.29 820.896 1700.1 821.646 1697.69 822.188C1695.27 822.771 1692.54 823.062 1689.5 823.062C1686.92 823.062 1684.4 822.646 1681.94 821.812C1679.52 820.979 1677.33 819.75 1675.38 818.125C1673.46 816.5 1671.92 814.5 1670.75 812.125C1669.58 809.708 1669 806.917 1669 803.75C1669 800.292 1669.58 797.312 1670.75 794.812C1671.92 792.271 1673.44 790.167 1675.31 788.5C1677.19 786.792 1679.33 785.479 1681.75 784.562C1684.17 783.646 1686.62 783.042 1689.12 782.75L1707.94 780.438C1709.73 780.229 1711.12 779.542 1712.12 778.375C1713.17 777.167 1713.69 775.25 1713.69 772.625C1713.69 768.583 1712.35 765.688 1709.69 763.938C1707.06 762.146 1703.27 761.25 1698.31 761.25C1693.23 761.25 1689.44 762.333 1686.94 764.5C1684.44 766.625 1683.02 769.833 1682.69 774.125H1671.94ZM1713.44 786.938C1712.52 787.604 1711.38 788.167 1710 788.625C1708.67 789.042 1707.19 789.396 1705.56 789.688C1703.94 789.979 1702.21 790.25 1700.38 790.5C1698.54 790.708 1696.71 790.938 1694.88 791.188C1692.79 791.479 1690.88 791.896 1689.12 792.438C1687.38 792.979 1685.85 793.688 1684.56 794.562C1683.27 795.438 1682.27 796.5 1681.56 797.75C1680.85 798.958 1680.5 800.396 1680.5 802.062C1680.5 803.979 1680.79 805.667 1681.38 807.125C1682 808.583 1682.83 809.812 1683.88 810.812C1684.96 811.812 1686.25 812.562 1687.75 813.062C1689.25 813.562 1690.9 813.812 1692.69 813.812C1693.81 813.812 1695.1 813.688 1696.56 813.438C1698.02 813.146 1699.52 812.729 1701.06 812.188C1702.6 811.646 1704.1 810.958 1705.56 810.125C1707.06 809.25 1708.4 808.208 1709.56 807C1710.73 805.792 1711.67 804.417 1712.38 802.875C1713.08 801.333 1713.44 799.604 1713.44 797.688V786.938ZM1743.31 754.062H1771.81C1779.98 754.062 1786.08 755.583 1790.12 758.625C1794.21 761.667 1796.25 766.083 1796.25 771.875C1796.25 774.958 1795.5 777.562 1794 779.688C1792.5 781.812 1790.52 783.688 1788.06 785.312C1791.6 786.646 1794.42 788.562 1796.5 791.062C1798.58 793.562 1799.62 796.792 1799.62 800.75C1799.62 803.875 1799.1 806.688 1798.06 809.188C1797.02 811.688 1795.44 813.812 1793.31 815.562C1791.19 817.312 1788.48 818.667 1785.19 819.625C1781.94 820.542 1778.08 821 1773.62 821H1743.31V754.062ZM1754.81 811.812H1772.31C1775.35 811.812 1777.88 811.583 1779.88 811.125C1781.92 810.625 1783.54 809.917 1784.75 809C1785.96 808.083 1786.81 806.979 1787.31 805.688C1787.81 804.396 1788.06 802.938 1788.06 801.312C1788.06 799.688 1787.81 798.229 1787.31 796.938C1786.81 795.604 1785.96 794.5 1784.75 793.625C1783.54 792.708 1781.92 792.021 1779.88 791.562C1777.88 791.062 1775.35 790.812 1772.31 790.812H1754.81V811.812ZM1754.81 782.375H1772.19C1776.06 782.375 1779.12 781.604 1781.38 780.062C1783.62 778.521 1784.75 776.125 1784.75 772.875C1784.75 771.042 1784.44 769.521 1783.81 768.312C1783.19 767.062 1782.35 766.062 1781.31 765.312C1780.27 764.562 1779.08 764.042 1777.75 763.75C1776.46 763.417 1775.12 763.25 1773.75 763.25H1754.81V782.375ZM1858.5 764.062H1832.88L1832.38 780.125C1832.12 788.25 1831.5 795.042 1830.5 800.5C1829.5 805.917 1828.12 810.271 1826.38 813.562C1824.67 816.854 1822.58 819.188 1820.12 820.562C1817.67 821.938 1814.85 822.625 1811.69 822.625C1810.52 822.625 1809.5 822.438 1808.62 822.062C1807.79 821.729 1807.15 821.375 1806.69 821V810.875C1808.31 811.5 1809.75 811.812 1811 811.812C1811.88 811.812 1812.71 811.667 1813.5 811.375C1814.33 811.083 1815.1 810.521 1815.81 809.688C1816.56 808.854 1817.25 807.688 1817.88 806.188C1818.5 804.646 1819.04 802.646 1819.5 800.188C1820 797.729 1820.4 794.75 1820.69 791.25C1821.02 787.75 1821.25 783.583 1821.38 778.75L1821.94 754.062H1870V821H1858.5V764.062ZM1943.94 799.625C1943.48 802.542 1942.48 805.396 1940.94 808.188C1939.4 810.979 1937.38 813.479 1934.88 815.688C1932.38 817.896 1929.42 819.667 1926 821C1922.62 822.375 1918.88 823.062 1914.75 823.062C1910.25 823.062 1906.08 822.333 1902.25 820.875C1898.46 819.375 1895.17 817.146 1892.38 814.188C1889.62 811.188 1887.46 807.438 1885.88 802.938C1884.29 798.438 1883.5 793.146 1883.5 787.062C1883.5 782.979 1883.94 779.292 1884.81 776C1885.73 772.667 1886.94 769.708 1888.44 767.125C1889.98 764.5 1891.75 762.25 1893.75 760.375C1895.75 758.458 1897.85 756.896 1900.06 755.688C1902.31 754.438 1904.6 753.521 1906.94 752.938C1909.27 752.312 1911.52 752 1913.69 752C1918.27 752 1922.46 752.688 1926.25 754.062C1930.04 755.438 1933.29 757.542 1936 760.375C1938.75 763.167 1940.88 766.688 1942.38 770.938C1943.92 775.146 1944.69 780.104 1944.69 785.812V791.562H1895.75C1895.79 794.812 1896.25 797.771 1897.12 800.438C1898 803.062 1899.25 805.312 1900.88 807.188C1902.5 809.062 1904.46 810.521 1906.75 811.562C1909.08 812.562 1911.71 813.062 1914.62 813.062C1917.58 813.062 1920.08 812.646 1922.12 811.812C1924.17 810.979 1925.88 809.917 1927.25 808.625C1928.62 807.333 1929.73 805.896 1930.56 804.312C1931.44 802.729 1932.17 801.167 1932.75 799.625H1943.94ZM1933.12 782.375C1933.04 779.125 1932.54 776.229 1931.62 773.688C1930.75 771.146 1929.5 769.021 1927.88 767.312C1926.29 765.562 1924.38 764.25 1922.12 763.375C1919.88 762.458 1917.38 762 1914.62 762C1912 762 1909.58 762.521 1907.38 763.562C1905.17 764.562 1903.23 765.979 1901.56 767.812C1899.9 769.604 1898.56 771.75 1897.56 774.25C1896.56 776.708 1895.96 779.417 1895.75 782.375H1933.12ZM1958.19 754.062H1969.69V781.062H2000.94V754.062H2012.5V821H2000.94V791.062H1969.69V821H1958.19V754.062ZM2029.44 754.062H2040.94V805.375H2041.19L2074.06 754.062H2087.25V821H2075.69V769.688H2075.44L2042.62 821H2029.44V754.062ZM2158.62 821H2147.06V794.5H2132.25C2129.58 794.5 2127.25 794.562 2125.25 794.688C2123.29 794.771 2121.62 795.146 2120.25 795.812C2118.88 796.479 2117.79 797.521 2117 798.938C2116.25 800.354 2115.77 802.375 2115.56 805L2115.06 812.188C2115.02 812.396 2114.98 812.812 2114.94 813.438C2114.9 814.062 2114.81 814.812 2114.69 815.688C2114.56 816.521 2114.4 817.417 2114.19 818.375C2113.98 819.333 2113.73 820.208 2113.44 821H2100.75C2101.04 820.625 2101.31 820.25 2101.56 819.875C2101.85 819.458 2102.12 818.896 2102.38 818.188C2102.67 817.479 2102.92 816.562 2103.12 815.438C2103.38 814.312 2103.6 812.875 2103.81 811.125L2104.56 802.562C2104.81 800.312 2105.1 798.479 2105.44 797.062C2105.81 795.646 2106.31 794.479 2106.94 793.562C2107.6 792.604 2108.46 791.833 2109.5 791.25C2110.54 790.625 2111.85 790 2113.44 789.375C2106.27 786.792 2102.69 781.5 2102.69 773.5C2102.69 771.5 2102.94 769.667 2103.44 768C2103.94 766.292 2104.58 764.771 2105.38 763.438C2106.21 762.104 2107.12 760.938 2108.12 759.938C2109.17 758.896 2110.21 758.042 2111.25 757.375C2112.54 756.542 2113.96 755.917 2115.5 755.5C2117.04 755.042 2118.58 754.708 2120.12 754.5C2121.71 754.292 2123.25 754.167 2124.75 754.125C2126.25 754.083 2127.62 754.062 2128.88 754.062H2158.62V821ZM2147.06 764.188H2129.56C2128.06 764.188 2126.77 764.208 2125.69 764.25C2124.6 764.25 2123.65 764.292 2122.81 764.375C2122.02 764.458 2121.29 764.604 2120.62 764.812C2119.96 765.021 2119.27 765.312 2118.56 765.688C2117.1 766.521 2115.98 767.75 2115.19 769.375C2114.44 771 2114.06 772.729 2114.06 774.562C2114.06 776.354 2114.33 777.875 2114.88 779.125C2115.42 780.333 2116.12 781.333 2117 782.125C2117.92 782.917 2118.92 783.542 2120 784C2121.12 784.417 2122.25 784.729 2123.38 784.938C2124.54 785.104 2125.67 785.208 2126.75 785.25C2127.83 785.292 2128.77 785.312 2129.56 785.312H2147.06V764.188ZM2261 783.125L2247 742.25L2231.5 783.125H2261ZM2205.12 821L2239.56 727.688H2254.5L2287.81 821H2274.19L2264.5 792.875H2228.38L2218.12 821H2205.12ZM2299.25 729.125H2332.12C2335.75 729.125 2338.92 729.229 2341.62 729.438C2344.33 729.604 2346.88 730 2349.25 730.625C2351.5 731.25 2353.6 732.167 2355.56 733.375C2357.56 734.542 2359.31 736.042 2360.81 737.875C2362.31 739.667 2363.48 741.771 2364.31 744.188C2365.19 746.562 2365.62 749.25 2365.62 752.25C2365.62 753.833 2365.42 755.542 2365 757.375C2364.58 759.208 2363.9 761.021 2362.94 762.812C2361.98 764.562 2360.71 766.208 2359.12 767.75C2357.58 769.25 2355.67 770.479 2353.38 771.438C2355.25 772.062 2357.17 772.938 2359.12 774.062C2361.08 775.188 2362.85 776.646 2364.44 778.438C2366.06 780.188 2367.4 782.333 2368.44 784.875C2369.48 787.375 2370 790.375 2370 793.875C2370 795.875 2369.75 797.958 2369.25 800.125C2368.79 802.25 2368.02 804.312 2366.94 806.312C2365.9 808.312 2364.54 810.208 2362.88 812C2361.21 813.792 2359.19 815.354 2356.81 816.688C2354.44 818.021 2351.69 819.083 2348.56 819.875C2345.48 820.625 2341.96 821 2338 821H2299.25V729.125ZM2336.19 810.25C2340.19 810.25 2343.54 809.875 2346.25 809.125C2349 808.333 2351.21 807.25 2352.88 805.875C2354.58 804.458 2355.81 802.771 2356.56 800.812C2357.31 798.854 2357.69 796.667 2357.69 794.25C2357.69 791.833 2357.31 789.646 2356.56 787.688C2355.81 785.729 2354.58 784.062 2352.88 782.688C2351.21 781.271 2349 780.188 2346.25 779.438C2343.54 778.646 2340.19 778.25 2336.19 778.25H2311.5V810.25H2336.19ZM2334.44 768.25C2338.48 768.25 2341.73 767.875 2344.19 767.125C2346.69 766.333 2348.6 765.292 2349.94 764C2351.31 762.667 2352.23 761.104 2352.69 759.312C2353.15 757.521 2353.38 755.604 2353.38 753.562C2353.38 751.396 2353.04 749.479 2352.38 747.812C2351.75 746.104 2350.69 744.667 2349.19 743.5C2347.69 742.333 2345.73 741.438 2343.31 740.812C2340.9 740.188 2337.94 739.875 2334.44 739.875H2311.5V768.25H2334.44ZM2384.62 729.125H2402.25L2428.25 806.438H2428.5L2454.5 729.125H2472.12V821H2460.62V743.688H2460.38L2434.5 821H2422.25L2396.38 743.688H2396.12V821H2384.62V729.125Z" fill="black"/>
<path d="M852.65 283.37H285.72V850.3H852.65V283.37Z" fill="#FF7900"/>
<path d="M771.58 688.16H366.79V769.23H771.58V688.16Z" fill="white"/>
</svg>
